<?xml version="1.0" standalone="no"?>
<!DOCTYPE svg PUBLIC "-//W3C//DTD SVG 20010904//EN"
 "http://www.w3.org/TR/2001/REC-SVG-20010904/DTD/svg10.dtd">
<svg version="1.0" xmlns="http://www.w3.org/2000/svg"
 width="512.000000pt" height="512.000000pt" viewBox="0 0 512.000000 512.000000"
 preserveAspectRatio="xMidYMid meet">
<metadata>
Created by potrace 1.16, written by Peter Selinger 2001-2019
</metadata>
<g transform="translate(0.000000,512.000000) scale(0.100000,-0.100000)"
fill="#000000" stroke="none">
<path d="M1650 4691 c-71 -23 -113 -58 -146 -121 -14 -27 -19 -65 -22 -166
l-4 -132 -167 -4 c-152 -5 -173 -7 -246 -34 -102 -38 -177 -88 -257 -172 -74
-79 -119 -159 -148 -263 -20 -75 -20 -87 -18 -1475 l3 -1399 27 -73 c71 -196
225 -340 428 -404 l75 -23 1380 0 c1524 0 1426 -4 1571 66 167 82 297 242 339
421 22 96 22 2784 0 2873 -30 117 -80 203 -174 295 -145 143 -272 190 -517
190 l-142 0 -4 138 c-4 162 -17 198 -91 249 -83 56 -187 53 -262 -9 -62 -52
-75 -92 -75 -245 l0 -133 -640 0 -640 0 0 135 c0 143 -7 172 -54 223 -46 52
-155 83 -216 63z m-160 -983 c0 -151 13 -193 71 -242 114 -96 272 -65 340 66
16 31 19 59 19 173 l0 135 640 0 640 0 0 -134 c0 -150 4 -167 52 -221 85 -98
242 -100 322 -4 49 57 56 87 56 230 l0 131 128 -4 c159 -5 209 -25 257 -103
l30 -48 3 -454 3 -453 -1491 0 -1490 0 0 443 0 443 25 51 c29 57 79 97 140
112 22 5 88 9 148 10 l107 1 0 -132z m2560 -2015 c0 -440 -4 -661 -11 -688
-17 -60 -84 -120 -151 -135 -39 -8 -404 -10 -1358 -8 l-1305 3 -41 22 c-52 28
-90 72 -104 121 -6 24 -10 270 -10 685 l0 647 1490 0 1490 0 0 -647z"/>
<path d="M1614 1905 c-78 -39 -124 -115 -124 -203 1 -117 97 -212 215 -212 84
0 157 46 197 124 29 58 23 158 -15 215 -62 94 -176 126 -273 76z"/>
<path d="M2480 1914 c-123 -53 -173 -208 -105 -320 23 -37 44 -56 84 -76 l55
-28 475 0 c440 0 479 2 516 19 118 53 160 203 89 317 -21 35 -44 56 -83 76
l-53 28 -472 0 c-398 -1 -476 -3 -506 -16z"/>
</g>
</svg>
